<svg width="22" height="18" viewBox="0 0 22 18" fill="none" xmlns="http://www.w3.org/2000/svg">
<path d="M11 0.200012C5.17355 0.200012 0.440002 4.14464 0.440002 9.00001C0.440002 13.4077 4.34122 17.0554 9.42219 17.6914L9.97344 17.761V10.8266H7.47875V9.41876H9.97344V7.54923C9.97344 6.398 10.3049 5.63978 10.8538 5.16407C11.4026 4.68837 12.2134 4.44845 13.3419 4.44845C14.2442 4.44845 14.5952 4.49401 14.9291 4.52814V5.68048H13.7544C13.0879 5.68048 12.541 5.99037 12.2572 6.40314C11.9734 6.8159 11.885 7.30874 11.885 7.81095V9.41798H14.8241L14.5625 10.8258H11.885V17.7719L12.4297 17.7102C17.5829 17.1278 21.56 13.4508 21.56 9.00001C21.56 4.14464 16.8265 0.200012 11 0.200012ZM11 1.00001C16.3076 1.00001 20.6 4.57699 20.6 9.00001C20.6 12.8919 17.2572 16.0927 12.845 16.8133V11.6258H15.3856L15.9434 8.61798H12.845V7.81095C12.845 7.39596 12.9361 7.02413 13.0897 6.80079C13.2433 6.57746 13.3913 6.48048 13.7544 6.48048H15.8891V3.80392L15.4728 3.75704C15.1849 3.72458 14.5276 3.64845 13.3419 3.64845C12.0444 3.64845 10.9307 3.94299 10.1619 4.60939C9.39308 5.27578 9.01344 6.26806 9.01344 7.54923V8.61876H6.51875V11.6266H9.01344V16.7883C4.67216 16.0219 1.4 12.8498 1.4 9.00001C1.4 4.57699 5.69237 1.00001 11 1.00001Z" fill="#ffffff"/>
</svg>
