<svg width="38" height="31" viewBox="0 0 38 31" fill="none" xmlns="http://www.w3.org/2000/svg">
<path d="M12.16 1.85999C6.72945 1.85999 2.28 5.4898 2.28 9.91999V21.08C2.28 25.5102 6.72945 29.14 12.16 29.14H25.84C31.2705 29.14 35.72 25.5102 35.72 21.08V9.91999C35.72 5.4898 31.2705 1.85999 25.84 1.85999H12.16ZM12.16 3.09999H25.84C30.4415 3.09999 34.2 6.16617 34.2 9.91999V21.08C34.2 24.8338 30.4415 27.9 25.84 27.9H12.16C7.55854 27.9 3.8 24.8338 3.8 21.08V9.91999C3.8 6.16617 7.55854 3.09999 12.16 3.09999ZM28.12 6.81999C27.284 6.81999 26.6 7.37799 26.6 8.05999C26.6 8.74199 27.284 9.29999 28.12 9.29999C28.956 9.29999 29.64 8.74199 29.64 8.05999C29.64 7.37799 28.956 6.81999 28.12 6.81999ZM19 8.67999C14.4055 8.67999 10.64 11.7518 10.64 15.5C10.64 19.2482 14.4055 22.32 19 22.32C23.5945 22.32 27.36 19.2482 27.36 15.5C27.36 11.7518 23.5945 8.67999 19 8.67999ZM19 9.91999C22.7655 9.91999 25.84 12.4282 25.84 15.5C25.84 18.5718 22.7655 21.08 19 21.08C15.2345 21.08 12.16 18.5718 12.16 15.5C12.16 12.4282 15.2345 9.91999 19 9.91999Z" fill="#ffffff"/>
</svg>
